<?xml version="1.0" encoding="utf-8"?>
<!-- Generator: Adobe Illustrator 16.0.3, SVG Export Plug-In . SVG Version: 6.00 Build 0)  -->
<!DOCTYPE svg PUBLIC "-//W3C//DTD SVG 1.1//EN" "http://www.w3.org/Graphics/SVG/1.1/DTD/svg11.dtd">
<svg version="1.1" id="Vrstva_1" xmlns="http://www.w3.org/2000/svg" xmlns:xlink="http://www.w3.org/1999/xlink" x="0px" y="0px"
	 width="502.711px" height="137.219px" viewBox="0 0 502.711 137.219" enable-background="new 0 0 502.711 137.219"
	 xml:space="preserve">
<g>
	<linearGradient id="SVGID_1_" gradientUnits="userSpaceOnUse" x1="59.1299" y1="137.2183" x2="59.1299" y2="0">
		<stop  offset="0" style="stop-color:#F6A800"/>
		<stop  offset="1" style="stop-color:#E64427"/>
	</linearGradient>
	<path fill="url(#SVGID_1_)" d="M114.949,59.289v16.516c0,1.783,3.311,1.346,3.311-0.213V59.078
		C118.26,57.295,114.949,57.732,114.949,59.289z M97.391,26.877v37.938c0,0.473,3.258,0.018,3.258-0.875V26.004
		C100.648,25.533,97.391,25.982,97.391,26.877z M79.809,88.236v38.869c0,0.559,3.256,0.082,3.256-0.873V87.361
		C83.064,86.807,79.809,87.283,79.809,88.236z M83.084,36.277V18.064c0-1.682-3.295-1.162-3.295,0.266v18.211
		C79.789,38.223,83.084,37.701,83.084,36.277z M62.209,100.215v32.988c0,1.57,3.285,0.969,3.285-0.32V99.896
		C65.494,98.326,62.209,98.926,62.209,100.215z M47.871,40.002V7.275c0-1.412-3.262-0.725-3.262,0.389v32.727
		C44.609,41.801,47.871,41.115,47.871,40.002z M44.611,94.338v34.637c0,0.598,3.26,0.107,3.26-0.871V93.463
		C47.871,92.867,44.611,93.359,44.611,94.338z M30.285,30.668V15.195c0-0.846-3.26-0.279-3.26,0.875v15.475
		C27.025,32.391,30.285,31.822,30.285,30.668z M9.42,34.998v64.865c0,1.705,3.303,1.205,3.303-0.252V34.744
		C12.723,33.039,9.42,33.539,9.42,34.998z M97.391,76.457v36.922c0,0.424,3.258-0.012,3.258-0.875V75.582
		C100.648,75.156,97.391,75.594,97.391,76.457z M27.002,80.973v37.557c0,1.752,3.307,1.293,3.307-0.227V80.746
		C30.309,78.992,27.002,79.451,27.002,80.973z M65.48,42.604V15.195c0-0.402-3.256,0.027-3.256,0.875v27.406
		C62.225,43.883,65.48,43.447,65.48,42.604z M0,51.42v25.762c0,1.402,4.561,0.541,4.561-1.221V50.197C4.561,48.793,0,49.654,0,51.42
		z M105.504,40.393v48.176c0,2.355,4.615,1.629,4.615-0.367V40.025C110.119,37.67,105.504,38.396,105.504,40.393z M22.162,64.16
		V25.814c0-2.225-4.598-1.402-4.598,0.432v38.346C17.564,66.816,22.162,65.992,22.162,64.16z M92.508,30.215v-19
		c0-1.238-4.561-0.428-4.561,1.221v19.002C87.947,32.678,92.508,31.865,92.508,30.215z M70.33,94.801v21.688
		c0,2.453,4.627,1.809,4.627-0.318V94.482C74.957,92.027,70.33,92.672,70.33,94.801z M52.732,100.27v20.143
		c0,2.24,4.6,1.428,4.6-0.424V99.842C57.332,97.604,52.732,98.416,52.732,100.27z M57.338,42.848V20.643
		c0-2.326-4.611-1.576-4.611,0.385v22.205C52.727,45.555,57.338,44.807,57.338,42.848z M35.166,89.316v47.525
		c0,0.857,4.563,0.166,4.563-1.221V88.094C39.729,87.236,35.166,87.928,35.166,89.316z M39.729,35.82V0.266
		c0-0.66-4.563-0.029-4.563,1.223v35.557C35.166,37.701,39.729,37.07,39.729,35.82z M87.91,81.014v22.867
		c0,2.471,4.635,1.842,4.635-0.311V80.705C92.545,78.234,87.91,78.861,87.91,81.014z M74.924,39.584V25.83
		c0-1.283-4.561-0.457-4.561,1.223v13.754C70.363,42.088,74.924,41.264,74.924,39.584z M17.551,76.189v29.998
		c0,2.412,4.623,1.729,4.623-0.34V75.852C22.174,73.439,17.551,74.121,17.551,76.189z M92.508,56.434V39.457
		c0-2.674-4.561,0.291-4.561,5.299v12.898C87.947,58.348,92.508,57.705,92.508,56.434z M30.285,57.48v-15.18
		c0-2.43-3.26-5.186-3.26-2.352v16.654C27.025,57.709,30.285,58.256,30.285,57.48z M63.912,84.047h-7.34
		c-0.236-0.02-0.494,0-0.762,0.049c-0.77,0.098-1.582,0.396-1.992,1.051c-0.09,0.141-0.119,0.268-0.127,0.389
		c0,0.006,0,0.016,0,0.023c-0.002,0.076,0.008,0.146,0.033,0.211l0.002,0.01c0.029,0.072,0.068,0.141,0.121,0.203
		c0.01,0.01,0.021,0.023,0.031,0.035c0.035,0.033,0.07,0.068,0.111,0.096c0.037,0.035,0.066,0.072,0.115,0.104
		c1.254,0.875,2.506,1.748,3.76,2.623c0.727,0.504,2.133,0.113,2.779-0.336c1.252-0.873,2.506-1.75,3.76-2.623
		C65.404,85.186,65.285,84.047,63.912,84.047z M53.377,73.229c-4.834-2.006-9.67-4.014-14.502-6.02
		c-1.254-0.52-4.801,1.268-3.09,1.977c4.832,2.008,9.668,4.012,14.502,6.02C51.541,75.725,55.088,73.941,53.377,73.229z
		 M79.949,67.209c-4.834,2.006-9.67,4.014-14.506,6.02c-1.711,0.713,1.838,2.496,3.09,1.977c4.834-2.008,9.67-4.012,14.502-6.02
		C84.748,68.477,81.199,66.689,79.949,67.209z"/>
	<g>
		<g>
			<path fill="#082134" d="M449.17,99.491V27.946c0-3.687-13.582-1.273-13.582,3.644v71.542
				C435.588,106.819,449.17,104.406,449.17,99.491z"/>
			<path fill="#082134" d="M499.943,78.956c-1.845-2.263-4.023-3.969-6.531-5.117c-2.506-1.15-5.711-2.316-9.611-3.501
				c-3.693-1.046-6.391-2.038-8.097-2.976c-1.706-0.943-2.56-2.283-2.56-4.025c0-1.671,0.68-2.906,2.039-3.708
				c1.357-0.801,3.188-1.2,5.484-1.2c2.436,0,5.1,0.452,7.99,1.356c4.33,1.356,6.73,2.873,9.209,4.257
				c2.631,1.472,6.328-9.19,2.816-11.151c-2.72-1.521-5.164-2.649-8.264-3.552c-3.586-1.045-7.225-1.567-10.916-1.567
				c-6.061,0-11.092,1.445-15.098,4.334c-4.006,2.893-6.006,7.089-6.006,12.591c0,3.551,0.869,6.425,2.609,8.618
				c1.742,2.195,3.797,3.833,6.166,4.911c2.367,1.08,5.432,2.178,9.195,3.291c3.898,1.186,6.719,2.265,8.461,3.239
				c1.738,0.976,2.61,2.438,2.61,4.387c0,1.743-0.748,3.05-2.245,3.919c-1.499,0.872-3.5,1.305-6.008,1.305
				c-8.724,0-15.219-4.256-18.369-6.082c-2.496-1.459-6.348,8.717-2.913,10.637c5.431,3.034,11.077,5.895,20.761,5.895
				c6.336,0,11.596-1.463,15.773-4.39c4.182-2.925,6.27-7.104,6.27-12.536C502.711,84.198,501.788,81.222,499.943,78.956z"/>
			<path fill="#082134" d="M223.984,99.491V50.526c0-3.688-13.584-1.275-13.584,3.641v48.965
				C210.4,106.819,223.984,104.406,223.984,99.491z"/>
			<path fill="#082134" d="M356.479,69.396c0-6.613-1.849-11.855-5.539-15.72c-3.692-3.868-8.74-5.8-15.149-5.8
				c-9.54,0.14-16.229,3.797-20.058,10.971c0-4.281,0-4.868,0-9.264c0-3.688-13.58-1.273-13.58,3.643v8.775
				c0,4.743,0,35.058,0,41.131c0,3.688,13.58,1.274,13.58-3.641c0-2.611,0-20.074,0-22.676c0-4.666,1.307-8.497,3.919-11.492
				c2.61-2.994,6.179-4.527,10.708-4.597c3.831,0,6.859,1.131,9.088,3.395c2.229,2.265,3.473,5.347,3.473,9.247
				c0,0-0.023,0.743-0.023,29.764c0,3.688,13.582,1.274,13.582-3.641C356.479,88.311,356.479,80.925,356.479,69.396z"/>
			<path fill="#082134" d="M289.342,58.349v-8.766c0-3.688-13.58-1.273-13.58,3.643v3.529c-1.883-2.785-4.338-4.943-7.367-6.477
				c-3.03-1.531-6.494-2.299-10.396-2.299c-4.876,0-9.193,1.116-12.954,3.344c-3.761,2.229-6.687,5.347-8.776,9.351
				c-2.09,4.007-3.135,8.618-3.135,13.843c0,5.293,1.045,9.979,3.135,14.052c2.09,4.074,5.016,7.246,8.776,9.507
				c3.761,2.266,8.078,3.396,12.954,3.396c3.971,0,7.453-0.748,10.45-2.247c2.992-1.497,5.431-3.671,7.313-6.528v6.581
				c0,4.458-1.482,7.974-4.441,10.553c-2.961,2.575-6.948,3.865-11.963,3.865c-7.53,0-12.152-2.706-15.529-4.402
				c-3.459-1.743-9.818,6.679-7.348,8.365c7.242,4.944,15.107,7.425,23.607,7.425c5.85,0,10.988-1.063,15.41-3.188
				c4.423-2.125,7.838-5.155,10.238-9.088c2.404-3.937,3.605-8.549,3.605-13.844V58.349z M271.633,86.375
				c-2.752,2.962-6.32,4.44-10.709,4.44c-4.387,0-7.958-1.479-10.709-4.44c-2.752-2.96-4.161-6.808-4.23-11.544
				c0.069-4.666,1.479-8.497,4.23-11.494c2.751-2.992,6.322-4.49,10.709-4.49c4.389,0,7.957,1.48,10.709,4.439
				c2.75,2.961,4.129,6.809,4.129,11.545S274.383,83.415,271.633,86.375z"/>
			<path fill="#082134" d="M197.739,72.01c-2.229-2.856-4.927-5.016-8.097-6.479c-3.169-1.463-7.227-2.925-12.171-4.388
				c-3.554-1.045-6.356-2.002-8.411-2.872s-3.76-1.986-5.117-3.343c-1.361-1.359-2.037-3.046-2.037-5.068
				c0-2.228,0.974-3.969,2.924-5.224c1.949-1.253,4.598-1.882,7.939-1.882c2.994,0,6.461,0.629,10.396,1.882
				c5.262,1.678,9.027,3.911,11.619,5.358c3.199,1.788,7.69-11.166,3.426-13.55c-3.171-1.771-6.373-3.184-10.239-4.345
				c-4.634-1.395-9.315-2.09-14.054-2.09c-5.432,0-10.221,0.87-14.365,2.611c-4.142,1.741-7.346,4.197-9.609,7.367
				c-2.266,3.168-3.397,6.877-3.397,11.124c0,4.597,1.114,8.308,3.343,11.128c2.23,2.821,4.913,4.928,8.047,6.32
				c3.135,1.395,7.172,2.821,12.118,4.285c3.622,1.043,6.479,1.984,8.567,2.819c2.089,0.836,3.814,1.934,5.171,3.29
				c1.36,1.359,2.038,3.084,2.038,5.172c0,2.579-1.115,4.614-3.344,6.113c-2.23,1.497-5.295,2.245-9.193,2.245
				c-9.729,0-17.074-4.997-24.334-9.375c-3.006-1.83-7.787,10.44-3.779,12.884c3.053,1.778,5.336,3.659,11.188,5.947
				c5.436,2.123,11.006,3.186,16.717,3.186c5.434,0,10.254-0.869,14.471-2.611c4.212-1.741,7.523-4.268,9.924-7.575
				c2.404-3.307,3.605-7.191,3.605-11.648C201.084,78.628,199.969,74.866,197.739,72.01z"/>
			<path fill="#082134" d="M409.475,53.305v4.128c-2.01-3.028-4.602-5.355-7.775-6.979c-3.195-1.63-6.841-2.448-10.939-2.448
				c-5.209,0-9.811,1.181-13.803,3.543c-3.994,2.361-7.103,5.678-9.324,9.948c-2.225,4.271-3.334,9.186-3.334,14.742
				c0,5.626,1.109,10.61,3.334,14.949c2.222,4.342,5.33,7.71,9.324,10.106c3.992,2.396,8.627,3.592,13.906,3.592
				c4.099,0,7.727-0.813,10.889-2.446c3.139-1.622,5.713-3.947,7.723-6.979v7.67c0,3.688,13.582,1.274,13.582-3.641v-3.742V56.427
				v-6.764C423.057,45.976,409.475,48.386,409.475,53.305z M404.619,89.417c-2.852,2.746-6.462,4.116-10.838,4.116
				c-4.652,0-8.438-1.58-11.354-4.741c-2.92-3.159-4.414-7.241-4.482-12.24c0.068-5,1.563-9.08,4.482-12.242
				c2.916-3.157,6.701-4.739,11.354-4.739c4.376,0,7.986,1.372,10.838,4.116c2.781,2.682,4.396,6.217,4.855,10.592v4.547
				C409.015,83.2,407.4,86.735,404.619,89.417z"/>
		</g>
		<path fill="#082134" d="M223.984,35.544v-8.013c0-3.688-13.584-1.276-13.584,3.641v8.013
			C210.4,42.872,223.984,40.459,223.984,35.544z"/>
	</g>
</g>
</svg>
